<?xml version="1.0" encoding="utf-8" standalone="no"?>
<!DOCTYPE svg PUBLIC "-//W3C//DTD SVG 1.1//EN"
  "http://www.w3.org/Graphics/SVG/1.1/DTD/svg11.dtd">
<svg xmlns:xlink="http://www.w3.org/1999/xlink" width="648pt" height="288pt" viewBox="0 0 648 288" xmlns="http://www.w3.org/2000/svg" version="1.1">
 <metadata>
  <rdf:RDF xmlns:dc="http://purl.org/dc/elements/1.1/" xmlns:cc="http://creativecommons.org/ns#" xmlns:rdf="http://www.w3.org/1999/02/22-rdf-syntax-ns#">
   <cc:Work>
    <dc:type rdf:resource="http://purl.org/dc/dcmitype/StillImage"/>
    <dc:date>2025-03-26T15:18:08.507367</dc:date>
    <dc:format>image/svg+xml</dc:format>
    <dc:creator>
     <cc:Agent>
      <dc:title>Matplotlib v3.8.4, https://matplotlib.org/</dc:title>
     </cc:Agent>
    </dc:creator>
   </cc:Work>
  </rdf:RDF>
 </metadata>
 <defs>
  <style type="text/css">*{stroke-linejoin: round; stroke-linecap: butt}</style>
 </defs>
 <g id="figure_1">
  <g id="patch_1">
   <path d="M 0 288 
L 648 288 
L 648 0 
L 0 0 
z
" style="fill: #ffffff"/>
  </g>
  <g id="axes_1">
   <g id="patch_2">
    <path d="M 64.8 244.8 
L 280.8 244.8 
L 280.8 34.56 
L 64.8 34.56 
z
" style="fill: #ffffff"/>
   </g>
   <g id="matplotlib.axis_1">
    <g id="xtick_1">
     <g id="line2d_1">
      <defs>
       <path id="mff6ed3e87e" d="M 0 0 
L 0 3.5 
" style="stroke: #000000; stroke-width: 0.8"/>
      </defs>
      <g>
       <use xlink:href="#mff6ed3e87e" x="89.723077" y="244.8" style="stroke: #000000; stroke-width: 0.8"/>
      </g>
     </g>
     <g id="text_1">
      <!-- 0 -->
      <g transform="translate(86.386514 260.408125) scale(0.12 -0.12)">
       <defs>
        <path id="Helvetica-30" d="M 1731 4475 
Q 2600 4475 2988 3759 
Q 3288 3206 3288 2244 
Q 3288 1331 3016 734 
Q 2622 -122 1728 -122 
Q 922 -122 528 578 
Q 200 1163 200 2147 
Q 200 2909 397 3456 
Q 766 4475 1731 4475 
z
M 1725 391 
Q 2163 391 2422 778 
Q 2681 1166 2681 2222 
Q 2681 2984 2493 3476 
Q 2306 3969 1766 3969 
Q 1269 3969 1039 3501 
Q 809 3034 809 2125 
Q 809 1441 956 1025 
Q 1181 391 1725 391 
z
" transform="scale(0.015625)"/>
       </defs>
       <use xlink:href="#Helvetica-30"/>
      </g>
     </g>
    </g>
    <g id="xtick_2">
     <g id="line2d_2">
      <g>
       <use xlink:href="#mff6ed3e87e" x="122.953846" y="244.8" style="stroke: #000000; stroke-width: 0.8"/>
      </g>
     </g>
     <g id="text_2">
      <!-- 4 -->
      <g transform="translate(119.617284 260.408125) scale(0.12 -0.12)">
       <defs>
        <path id="Helvetica-34" d="M 2116 1584 
L 2116 3613 
L 681 1584 
L 2116 1584 
z
M 2125 0 
L 2125 1094 
L 163 1094 
L 163 1644 
L 2213 4488 
L 2688 4488 
L 2688 1584 
L 3347 1584 
L 3347 1094 
L 2688 1094 
L 2688 0 
L 2125 0 
z
" transform="scale(0.015625)"/>
       </defs>
       <use xlink:href="#Helvetica-34"/>
      </g>
     </g>
    </g>
    <g id="xtick_3">
     <g id="line2d_3">
      <g>
       <use xlink:href="#mff6ed3e87e" x="156.184615" y="244.8" style="stroke: #000000; stroke-width: 0.8"/>
      </g>
     </g>
     <g id="text_3">
      <!-- 8 -->
      <g transform="translate(152.848053 260.408125) scale(0.12 -0.12)">
       <defs>
        <path id="Helvetica-38" d="M 1741 2600 
Q 2113 2600 2322 2808 
Q 2531 3016 2531 3303 
Q 2531 3553 2331 3762 
Q 2131 3972 1722 3972 
Q 1316 3972 1134 3762 
Q 953 3553 953 3272 
Q 953 2956 1187 2778 
Q 1422 2600 1741 2600 
z
M 1775 384 
Q 2166 384 2423 595 
Q 2681 806 2681 1225 
Q 2681 1659 2415 1884 
Q 2150 2109 1734 2109 
Q 1331 2109 1076 1879 
Q 822 1650 822 1244 
Q 822 894 1055 639 
Q 1288 384 1775 384 
z
M 975 2384 
Q 741 2484 609 2619 
Q 363 2869 363 3269 
Q 363 3769 725 4128 
Q 1088 4488 1753 4488 
Q 2397 4488 2762 4148 
Q 3128 3809 3128 3356 
Q 3128 2938 2916 2678 
Q 2797 2531 2547 2391 
Q 2825 2263 2984 2097 
Q 3281 1784 3281 1284 
Q 3281 694 2884 283 
Q 2488 -128 1763 -128 
Q 1109 -128 657 226 
Q 206 581 206 1256 
Q 206 1653 400 1942 
Q 594 2231 975 2384 
z
" transform="scale(0.015625)"/>
       </defs>
       <use xlink:href="#Helvetica-38"/>
      </g>
     </g>
    </g>
    <g id="xtick_4">
     <g id="line2d_4">
      <g>
       <use xlink:href="#mff6ed3e87e" x="189.415385" y="244.8" style="stroke: #000000; stroke-width: 0.8"/>
      </g>
     </g>
     <g id="text_4">
      <!-- 12 -->
      <g transform="translate(182.74226 260.408125) scale(0.12 -0.12)">
       <defs>
        <path id="Helvetica-31" d="M 613 3169 
L 613 3600 
Q 1222 3659 1462 3798 
Q 1703 3938 1822 4456 
L 2266 4456 
L 2266 0 
L 1666 0 
L 1666 3169 
L 613 3169 
z
" transform="scale(0.015625)"/>
        <path id="Helvetica-32" d="M 200 0 
Q 231 578 439 1006 
Q 647 1434 1250 1784 
L 1850 2131 
Q 2253 2366 2416 2531 
Q 2672 2791 2672 3125 
Q 2672 3516 2437 3745 
Q 2203 3975 1813 3975 
Q 1234 3975 1013 3538 
Q 894 3303 881 2888 
L 309 2888 
Q 319 3472 525 3841 
Q 891 4491 1816 4491 
Q 2584 4491 2939 4075 
Q 3294 3659 3294 3150 
Q 3294 2613 2916 2231 
Q 2697 2009 2131 1694 
L 1703 1456 
Q 1397 1288 1222 1134 
Q 909 863 828 531 
L 3272 531 
L 3272 0 
L 200 0 
z
" transform="scale(0.015625)"/>
       </defs>
       <use xlink:href="#Helvetica-31"/>
       <use xlink:href="#Helvetica-32" x="55.615234"/>
      </g>
     </g>
    </g>
    <g id="xtick_5">
     <g id="line2d_5">
      <g>
       <use xlink:href="#mff6ed3e87e" x="222.646154" y="244.8" style="stroke: #000000; stroke-width: 0.8"/>
      </g>
     </g>
     <g id="text_5">
      <!-- 16 -->
      <g transform="translate(215.973029 260.408125) scale(0.12 -0.12)">
       <defs>
        <path id="Helvetica-36" d="M 1872 4494 
Q 2622 4494 2917 4105 
Q 3213 3716 3213 3303 
L 2656 3303 
Q 2606 3569 2497 3719 
Q 2294 4000 1881 4000 
Q 1409 4000 1131 3564 
Q 853 3128 822 2316 
Q 1016 2600 1309 2741 
Q 1578 2866 1909 2866 
Q 2472 2866 2890 2506 
Q 3309 2147 3309 1434 
Q 3309 825 2912 354 
Q 2516 -116 1781 -116 
Q 1153 -116 697 361 
Q 241 838 241 1966 
Q 241 2800 444 3381 
Q 834 4494 1872 4494 
z
M 1831 384 
Q 2275 384 2495 682 
Q 2716 981 2716 1388 
Q 2716 1731 2519 2042 
Q 2322 2353 1803 2353 
Q 1441 2353 1167 2112 
Q 894 1872 894 1388 
Q 894 963 1142 673 
Q 1391 384 1831 384 
z
" transform="scale(0.015625)"/>
       </defs>
       <use xlink:href="#Helvetica-31"/>
       <use xlink:href="#Helvetica-36" x="55.615234"/>
      </g>
     </g>
    </g>
    <g id="xtick_6">
     <g id="line2d_6">
      <g>
       <use xlink:href="#mff6ed3e87e" x="255.876923" y="244.8" style="stroke: #000000; stroke-width: 0.8"/>
      </g>
     </g>
     <g id="text_6">
      <!-- 20 -->
      <g transform="translate(249.203798 260.408125) scale(0.12 -0.12)">
       <use xlink:href="#Helvetica-32"/>
       <use xlink:href="#Helvetica-30" x="55.615234"/>
      </g>
     </g>
    </g>
   </g>
   <g id="matplotlib.axis_2">
    <g id="ytick_1">
     <g id="line2d_7">
      <defs>
       <path id="mef96aa4147" d="M 0 0 
L -3.5 0 
" style="stroke: #000000; stroke-width: 0.8"/>
      </defs>
      <g>
       <use xlink:href="#mef96aa4147" x="64.8" y="220.541538" style="stroke: #000000; stroke-width: 0.8"/>
      </g>
     </g>
     <g id="text_7">
      <!-- 0 -->
      <g transform="translate(51.126875 224.845601) scale(0.12 -0.12)">
       <use xlink:href="#Helvetica-30"/>
      </g>
     </g>
    </g>
    <g id="ytick_2">
     <g id="line2d_8">
      <g>
       <use xlink:href="#mef96aa4147" x="64.8" y="188.196923" style="stroke: #000000; stroke-width: 0.8"/>
      </g>
     </g>
     <g id="text_8">
      <!-- 4 -->
      <g transform="translate(51.126875 192.500986) scale(0.12 -0.12)">
       <use xlink:href="#Helvetica-34"/>
      </g>
     </g>
    </g>
    <g id="ytick_3">
     <g id="line2d_9">
      <g>
       <use xlink:href="#mef96aa4147" x="64.8" y="155.852308" style="stroke: #000000; stroke-width: 0.8"/>
      </g>
     </g>
     <g id="text_9">
      <!-- 8 -->
      <g transform="translate(51.126875 160.15637) scale(0.12 -0.12)">
       <use xlink:href="#Helvetica-38"/>
      </g>
     </g>
    </g>
    <g id="ytick_4">
     <g id="line2d_10">
      <g>
       <use xlink:href="#mef96aa4147" x="64.8" y="123.507692" style="stroke: #000000; stroke-width: 0.8"/>
      </g>
     </g>
     <g id="text_10">
      <!-- 12 -->
      <g transform="translate(44.45375 127.811755) scale(0.12 -0.12)">
       <use xlink:href="#Helvetica-31"/>
       <use xlink:href="#Helvetica-32" x="55.615234"/>
      </g>
     </g>
    </g>
    <g id="ytick_5">
     <g id="line2d_11">
      <g>
       <use xlink:href="#mef96aa4147" x="64.8" y="91.163077" style="stroke: #000000; stroke-width: 0.8"/>
      </g>
     </g>
     <g id="text_11">
      <!-- 16 -->
      <g transform="translate(44.45375 95.467139) scale(0.12 -0.12)">
       <use xlink:href="#Helvetica-31"/>
       <use xlink:href="#Helvetica-36" x="55.615234"/>
      </g>
     </g>
    </g>
    <g id="ytick_6">
     <g id="line2d_12">
      <g>
       <use xlink:href="#mef96aa4147" x="64.8" y="58.818462" style="stroke: #000000; stroke-width: 0.8"/>
      </g>
     </g>
     <g id="text_12">
      <!-- 20 -->
      <g transform="translate(44.45375 63.122524) scale(0.12 -0.12)">
       <use xlink:href="#Helvetica-32"/>
       <use xlink:href="#Helvetica-30" x="55.615234"/>
      </g>
     </g>
    </g>
   </g>
   <g id="line2d_13">
    <path d="M 89.723077 217.541538 
L 122.953846 185.196923 
L 156.184615 152.852308 
L 189.415385 120.507692 
L 222.646154 88.163077 
L 255.876923 55.818462 
" clip-path="url(#pee43857af5)" style="fill: none; stroke: #000000; stroke-width: 1.5; stroke-linecap: square"/>
   </g>
   <g id="LineCollection_1">
    <path d="M 89.723077 217.541538 
L 89.723077 217.541538 
" clip-path="url(#pee43857af5)" style="fill: none; stroke: #000000; stroke-width: 1.5"/>
    <path d="M 122.953846 185.196923 
L 122.953846 185.196923 
" clip-path="url(#pee43857af5)" style="fill: none; stroke: #000000; stroke-width: 1.5"/>
    <path d="M 156.184615 171.52648 
L 156.184615 134.178135 
" clip-path="url(#pee43857af5)" style="fill: none; stroke: #000000; stroke-width: 1.5"/>
    <path d="M 189.415385 131.289231 
L 189.415385 109.726154 
" clip-path="url(#pee43857af5)" style="fill: none; stroke: #000000; stroke-width: 1.5"/>
    <path d="M 222.646154 98.944615 
L 222.646154 77.381538 
" clip-path="url(#pee43857af5)" style="fill: none; stroke: #000000; stroke-width: 1.5"/>
    <path d="M 255.876923 55.818462 
L 255.876923 55.818462 
" clip-path="url(#pee43857af5)" style="fill: none; stroke: #000000; stroke-width: 1.5"/>
   </g>
   <g id="line2d_14">
    <defs>
     <path id="m61cd7d117c" d="M 4 0 
L -4 -0 
" style="stroke: #000000"/>
    </defs>
    <g clip-path="url(#pee43857af5)">
     <use xlink:href="#m61cd7d117c" x="89.723077" y="217.541538" style="stroke: #000000"/>
     <use xlink:href="#m61cd7d117c" x="122.953846" y="185.196923" style="stroke: #000000"/>
     <use xlink:href="#m61cd7d117c" x="156.184615" y="171.52648" style="stroke: #000000"/>
     <use xlink:href="#m61cd7d117c" x="189.415385" y="131.289231" style="stroke: #000000"/>
     <use xlink:href="#m61cd7d117c" x="222.646154" y="98.944615" style="stroke: #000000"/>
     <use xlink:href="#m61cd7d117c" x="255.876923" y="55.818462" style="stroke: #000000"/>
    </g>
   </g>
   <g id="line2d_15">
    <g clip-path="url(#pee43857af5)">
     <use xlink:href="#m61cd7d117c" x="89.723077" y="217.541538" style="stroke: #000000"/>
     <use xlink:href="#m61cd7d117c" x="122.953846" y="185.196923" style="stroke: #000000"/>
     <use xlink:href="#m61cd7d117c" x="156.184615" y="134.178135" style="stroke: #000000"/>
     <use xlink:href="#m61cd7d117c" x="189.415385" y="109.726154" style="stroke: #000000"/>
     <use xlink:href="#m61cd7d117c" x="222.646154" y="77.381538" style="stroke: #000000"/>
     <use xlink:href="#m61cd7d117c" x="255.876923" y="55.818462" style="stroke: #000000"/>
    </g>
   </g>
   <g id="line2d_16">
    <path d="M 89.723077 219.041538 
L 122.953846 186.696923 
L 156.184615 154.352308 
L 189.415385 154.352308 
L 222.646154 154.352308 
L 255.876923 154.352308 
" clip-path="url(#pee43857af5)" style="fill: none; stroke: #00b2ff; stroke-width: 1.5; stroke-linecap: square"/>
   </g>
   <g id="LineCollection_2">
    <path d="M 89.723077 219.041538 
L 89.723077 219.041538 
" clip-path="url(#pee43857af5)" style="fill: none; stroke: #00b2ff; stroke-width: 1.5"/>
    <path d="M 122.953846 186.696923 
L 122.953846 186.696923 
" clip-path="url(#pee43857af5)" style="fill: none; stroke: #00b2ff; stroke-width: 1.5"/>
    <path d="M 156.184615 175.915385 
L 156.184615 132.789231 
" clip-path="url(#pee43857af5)" style="fill: none; stroke: #00b2ff; stroke-width: 1.5"/>
    <path d="M 189.415385 154.352308 
L 189.415385 154.352308 
" clip-path="url(#pee43857af5)" style="fill: none; stroke: #00b2ff; stroke-width: 1.5"/>
    <path d="M 222.646154 154.352308 
L 222.646154 154.352308 
" clip-path="url(#pee43857af5)" style="fill: none; stroke: #00b2ff; stroke-width: 1.5"/>
    <path d="M 255.876923 173.02648 
L 255.876923 135.678135 
" clip-path="url(#pee43857af5)" style="fill: none; stroke: #00b2ff; stroke-width: 1.5"/>
   </g>
   <g id="line2d_17">
    <defs>
     <path id="m36d791078f" d="M 4 0 
L -4 -0 
" style="stroke: #00b2ff"/>
    </defs>
    <g clip-path="url(#pee43857af5)">
     <use xlink:href="#m36d791078f" x="89.723077" y="219.041538" style="fill: #00b2ff; stroke: #00b2ff"/>
     <use xlink:href="#m36d791078f" x="122.953846" y="186.696923" style="fill: #00b2ff; stroke: #00b2ff"/>
     <use xlink:href="#m36d791078f" x="156.184615" y="175.915385" style="fill: #00b2ff; stroke: #00b2ff"/>
     <use xlink:href="#m36d791078f" x="189.415385" y="154.352308" style="fill: #00b2ff; stroke: #00b2ff"/>
     <use xlink:href="#m36d791078f" x="222.646154" y="154.352308" style="fill: #00b2ff; stroke: #00b2ff"/>
     <use xlink:href="#m36d791078f" x="255.876923" y="173.02648" style="fill: #00b2ff; stroke: #00b2ff"/>
    </g>
   </g>
   <g id="line2d_18">
    <g clip-path="url(#pee43857af5)">
     <use xlink:href="#m36d791078f" x="89.723077" y="219.041538" style="fill: #00b2ff; stroke: #00b2ff"/>
     <use xlink:href="#m36d791078f" x="122.953846" y="186.696923" style="fill: #00b2ff; stroke: #00b2ff"/>
     <use xlink:href="#m36d791078f" x="156.184615" y="132.789231" style="fill: #00b2ff; stroke: #00b2ff"/>
     <use xlink:href="#m36d791078f" x="189.415385" y="154.352308" style="fill: #00b2ff; stroke: #00b2ff"/>
     <use xlink:href="#m36d791078f" x="222.646154" y="154.352308" style="fill: #00b2ff; stroke: #00b2ff"/>
     <use xlink:href="#m36d791078f" x="255.876923" y="135.678135" style="fill: #00b2ff; stroke: #00b2ff"/>
    </g>
   </g>
   <g id="line2d_19">
    <path d="M 89.723077 220.541538 
L 122.953846 188.196923 
L 156.184615 155.852308 
L 189.415385 155.852308 
L 222.646154 155.852308 
L 255.876923 91.163077 
" clip-path="url(#pee43857af5)" style="fill: none; stroke: #a400d3; stroke-width: 1.5; stroke-linecap: square"/>
   </g>
   <g id="LineCollection_3">
    <path d="M 89.723077 220.541538 
L 89.723077 220.541538 
" clip-path="url(#pee43857af5)" style="fill: none; stroke: #a400d3; stroke-width: 1.5"/>
    <path d="M 122.953846 188.196923 
L 122.953846 188.196923 
" clip-path="url(#pee43857af5)" style="fill: none; stroke: #a400d3; stroke-width: 1.5"/>
    <path d="M 156.184615 177.415385 
L 156.184615 134.289231 
" clip-path="url(#pee43857af5)" style="fill: none; stroke: #a400d3; stroke-width: 1.5"/>
    <path d="M 189.415385 166.633846 
L 189.415385 145.070769 
" clip-path="url(#pee43857af5)" style="fill: none; stroke: #a400d3; stroke-width: 1.5"/>
    <path d="M 222.646154 155.852308 
L 222.646154 155.852308 
" clip-path="url(#pee43857af5)" style="fill: none; stroke: #a400d3; stroke-width: 1.5"/>
    <path d="M 255.876923 119.688346 
L 255.876923 62.637807 
" clip-path="url(#pee43857af5)" style="fill: none; stroke: #a400d3; stroke-width: 1.5"/>
   </g>
   <g id="line2d_20">
    <defs>
     <path id="m6bb649deb6" d="M 4 0 
L -4 -0 
" style="stroke: #a400d3"/>
    </defs>
    <g clip-path="url(#pee43857af5)">
     <use xlink:href="#m6bb649deb6" x="89.723077" y="220.541538" style="fill: #a400d3; stroke: #a400d3"/>
     <use xlink:href="#m6bb649deb6" x="122.953846" y="188.196923" style="fill: #a400d3; stroke: #a400d3"/>
     <use xlink:href="#m6bb649deb6" x="156.184615" y="177.415385" style="fill: #a400d3; stroke: #a400d3"/>
     <use xlink:href="#m6bb649deb6" x="189.415385" y="166.633846" style="fill: #a400d3; stroke: #a400d3"/>
     <use xlink:href="#m6bb649deb6" x="222.646154" y="155.852308" style="fill: #a400d3; stroke: #a400d3"/>
     <use xlink:href="#m6bb649deb6" x="255.876923" y="119.688346" style="fill: #a400d3; stroke: #a400d3"/>
    </g>
   </g>
   <g id="line2d_21">
    <g clip-path="url(#pee43857af5)">
     <use xlink:href="#m6bb649deb6" x="89.723077" y="220.541538" style="fill: #a400d3; stroke: #a400d3"/>
     <use xlink:href="#m6bb649deb6" x="122.953846" y="188.196923" style="fill: #a400d3; stroke: #a400d3"/>
     <use xlink:href="#m6bb649deb6" x="156.184615" y="134.289231" style="fill: #a400d3; stroke: #a400d3"/>
     <use xlink:href="#m6bb649deb6" x="189.415385" y="145.070769" style="fill: #a400d3; stroke: #a400d3"/>
     <use xlink:href="#m6bb649deb6" x="222.646154" y="155.852308" style="fill: #a400d3; stroke: #a400d3"/>
     <use xlink:href="#m6bb649deb6" x="255.876923" y="62.637807" style="fill: #a400d3; stroke: #a400d3"/>
    </g>
   </g>
   <g id="line2d_22">
    <path d="M 89.723077 222.041538 
L 122.953846 222.041538 
L 156.184615 60.318462 
L 189.415385 125.007692 
L 222.646154 125.007692 
L 255.876923 125.007692 
" clip-path="url(#pee43857af5)" style="fill: none; stroke: #008528; stroke-width: 1.5; stroke-linecap: square"/>
   </g>
   <g id="LineCollection_4">
    <path d="M 89.723077 222.041538 
L 89.723077 222.041538 
" clip-path="url(#pee43857af5)" style="fill: none; stroke: #008528; stroke-width: 1.5"/>
    <path d="M 122.953846 222.041538 
L 122.953846 222.041538 
" clip-path="url(#pee43857af5)" style="fill: none; stroke: #008528; stroke-width: 1.5"/>
    <path d="M 156.184615 60.318462 
L 156.184615 60.318462 
" clip-path="url(#pee43857af5)" style="fill: none; stroke: #008528; stroke-width: 1.5"/>
    <path d="M 189.415385 125.007692 
L 189.415385 125.007692 
" clip-path="url(#pee43857af5)" style="fill: none; stroke: #008528; stroke-width: 1.5"/>
    <path d="M 222.646154 125.007692 
L 222.646154 125.007692 
" clip-path="url(#pee43857af5)" style="fill: none; stroke: #008528; stroke-width: 1.5"/>
    <path d="M 255.876923 125.007692 
L 255.876923 125.007692 
" clip-path="url(#pee43857af5)" style="fill: none; stroke: #008528; stroke-width: 1.5"/>
   </g>
   <g id="line2d_23">
    <defs>
     <path id="mf5355e66c8" d="M 4 0 
L -4 -0 
" style="stroke: #008528"/>
    </defs>
    <g clip-path="url(#pee43857af5)">
     <use xlink:href="#mf5355e66c8" x="89.723077" y="222.041538" style="fill: #008528; stroke: #008528"/>
     <use xlink:href="#mf5355e66c8" x="122.953846" y="222.041538" style="fill: #008528; stroke: #008528"/>
     <use xlink:href="#mf5355e66c8" x="156.184615" y="60.318462" style="fill: #008528; stroke: #008528"/>
     <use xlink:href="#mf5355e66c8" x="189.415385" y="125.007692" style="fill: #008528; stroke: #008528"/>
     <use xlink:href="#mf5355e66c8" x="222.646154" y="125.007692" style="fill: #008528; stroke: #008528"/>
     <use xlink:href="#mf5355e66c8" x="255.876923" y="125.007692" style="fill: #008528; stroke: #008528"/>
    </g>
   </g>
   <g id="line2d_24">
    <g clip-path="url(#pee43857af5)">
     <use xlink:href="#mf5355e66c8" x="89.723077" y="222.041538" style="fill: #008528; stroke: #008528"/>
     <use xlink:href="#mf5355e66c8" x="122.953846" y="222.041538" style="fill: #008528; stroke: #008528"/>
     <use xlink:href="#mf5355e66c8" x="156.184615" y="60.318462" style="fill: #008528; stroke: #008528"/>
     <use xlink:href="#mf5355e66c8" x="189.415385" y="125.007692" style="fill: #008528; stroke: #008528"/>
     <use xlink:href="#mf5355e66c8" x="222.646154" y="125.007692" style="fill: #008528; stroke: #008528"/>
     <use xlink:href="#mf5355e66c8" x="255.876923" y="125.007692" style="fill: #008528; stroke: #008528"/>
    </g>
   </g>
   <g id="patch_3">
    <path d="M 64.8 244.8 
L 64.8 34.56 
" style="fill: none; stroke: #000000; stroke-width: 0.8; stroke-linejoin: miter; stroke-linecap: square"/>
   </g>
   <g id="patch_4">
    <path d="M 280.8 244.8 
L 280.8 34.56 
" style="fill: none; stroke: #000000; stroke-width: 0.8; stroke-linejoin: miter; stroke-linecap: square"/>
   </g>
   <g id="patch_5">
    <path d="M 64.8 244.8 
L 280.8 244.8 
" style="fill: none; stroke: #000000; stroke-width: 0.8; stroke-linejoin: miter; stroke-linecap: square"/>
   </g>
   <g id="patch_6">
    <path d="M 64.8 34.56 
L 280.8 34.56 
" style="fill: none; stroke: #000000; stroke-width: 0.8; stroke-linejoin: miter; stroke-linecap: square"/>
   </g>
   <g id="legend_1">
    <g id="line2d_25">
     <path d="M 70.2 42.164062 
L 76.2 42.164062 
L 82.2 42.164062 
" style="fill: none; stroke: #000000; stroke-width: 1.5; stroke-linecap: square"/>
    </g>
    <g id="text_13">
     <!-- $AX4$ -->
     <g transform="translate(87 44.264062) scale(0.06 -0.06)">
      <defs>
       <path id="DejaVuSans-Oblique-41" d="M 2356 4666 
L 3072 4666 
L 3938 0 
L 3278 0 
L 3084 1197 
L 984 1197 
L 325 0 
L -341 0 
L 2356 4666 
z
M 2584 4044 
L 1275 1722 
L 2988 1722 
L 2584 4044 
z
" transform="scale(0.015625)"/>
       <path id="DejaVuSans-Oblique-58" d="M 878 4666 
L 1516 4666 
L 2316 2981 
L 3763 4666 
L 4500 4666 
L 2578 2438 
L 3738 0 
L 3103 0 
L 2163 1966 
L 459 0 
L -275 0 
L 1906 2509 
L 878 4666 
z
" transform="scale(0.015625)"/>
       <path id="DejaVuSans-34" d="M 2419 4116 
L 825 1625 
L 2419 1625 
L 2419 4116 
z
M 2253 4666 
L 3047 4666 
L 3047 1625 
L 3713 1625 
L 3713 1100 
L 3047 1100 
L 3047 0 
L 2419 0 
L 2419 1100 
L 313 1100 
L 313 1709 
L 2253 4666 
z
" transform="scale(0.015625)"/>
      </defs>
      <use xlink:href="#DejaVuSans-Oblique-41" transform="translate(0 0.09375)"/>
      <use xlink:href="#DejaVuSans-Oblique-58" transform="translate(68.408203 0.09375)"/>
      <use xlink:href="#DejaVuSans-34" transform="translate(136.914062 0.09375)"/>
     </g>
    </g>
    <g id="line2d_26">
     <path d="M 70.2 48.994687 
L 76.2 48.994687 
L 82.2 48.994687 
" style="fill: none; stroke: #00b2ff; stroke-width: 1.5; stroke-linecap: square"/>
    </g>
    <g id="text_14">
     <!-- $tgrB1^-$ -->
     <g transform="translate(87 51.094687) scale(0.06 -0.06)">
      <defs>
       <path id="DejaVuSans-Oblique-74" d="M 2706 3500 
L 2619 3053 
L 1472 3053 
L 1100 1153 
Q 1081 1047 1072 975 
Q 1063 903 1063 863 
Q 1063 663 1183 572 
Q 1303 481 1569 481 
L 2150 481 
L 2053 0 
L 1503 0 
Q 991 0 739 200 
Q 488 400 488 806 
Q 488 878 497 964 
Q 506 1050 525 1153 
L 897 3053 
L 409 3053 
L 500 3500 
L 978 3500 
L 1172 4494 
L 1747 4494 
L 1556 3500 
L 2706 3500 
z
" transform="scale(0.015625)"/>
       <path id="DejaVuSans-Oblique-67" d="M 3816 3500 
L 3219 434 
Q 3047 -456 2561 -893 
Q 2075 -1331 1253 -1331 
Q 950 -1331 690 -1286 
Q 431 -1241 206 -1147 
L 313 -588 
Q 525 -725 762 -790 
Q 1000 -856 1269 -856 
Q 1816 -856 2167 -557 
Q 2519 -259 2631 300 
L 2681 563 
Q 2441 288 2122 144 
Q 1803 0 1434 0 
Q 903 0 598 351 
Q 294 703 294 1319 
Q 294 1803 478 2267 
Q 663 2731 997 3091 
Q 1219 3328 1514 3456 
Q 1809 3584 2131 3584 
Q 2484 3584 2746 3420 
Q 3009 3256 3138 2956 
L 3238 3500 
L 3816 3500 
z
M 2950 2216 
Q 2950 2641 2750 2872 
Q 2550 3103 2181 3103 
Q 1953 3103 1747 3012 
Q 1541 2922 1394 2759 
Q 1156 2491 1023 2127 
Q 891 1763 891 1375 
Q 891 944 1092 712 
Q 1294 481 1672 481 
Q 2219 481 2584 976 
Q 2950 1472 2950 2216 
z
" transform="scale(0.015625)"/>
       <path id="DejaVuSans-Oblique-72" d="M 2853 2969 
Q 2766 3016 2653 3041 
Q 2541 3066 2413 3066 
Q 1953 3066 1609 2717 
Q 1266 2369 1153 1784 
L 800 0 
L 225 0 
L 909 3500 
L 1484 3500 
L 1375 2956 
Q 1603 3259 1920 3421 
Q 2238 3584 2597 3584 
Q 2691 3584 2781 3573 
Q 2872 3563 2963 3538 
L 2853 2969 
z
" transform="scale(0.015625)"/>
       <path id="DejaVuSans-Oblique-42" d="M 1081 4666 
L 2694 4666 
Q 3350 4666 3675 4422 
Q 4000 4178 4000 3688 
Q 4000 3238 3720 2911 
Q 3441 2584 2988 2516 
Q 3375 2428 3569 2181 
Q 3763 1934 3763 1522 
Q 3763 819 3242 409 
Q 2722 0 1819 0 
L 172 0 
L 1081 4666 
z
M 1234 2228 
L 903 519 
L 1919 519 
Q 2491 519 2800 781 
Q 3109 1044 3109 1522 
Q 3109 1891 2904 2059 
Q 2700 2228 2247 2228 
L 1234 2228 
z
M 1606 4147 
L 1331 2741 
L 2272 2741 
Q 2775 2741 3058 2959 
Q 3341 3178 3341 3566 
Q 3341 3869 3150 4008 
Q 2959 4147 2541 4147 
L 1606 4147 
z
" transform="scale(0.015625)"/>
       <path id="DejaVuSans-31" d="M 794 531 
L 1825 531 
L 1825 4091 
L 703 3866 
L 703 4441 
L 1819 4666 
L 2450 4666 
L 2450 531 
L 3481 531 
L 3481 0 
L 794 0 
L 794 531 
z
" transform="scale(0.015625)"/>
       <path id="DejaVuSans-2212" d="M 678 2272 
L 4684 2272 
L 4684 1741 
L 678 1741 
L 678 2272 
z
" transform="scale(0.015625)"/>
      </defs>
      <use xlink:href="#DejaVuSans-Oblique-74" transform="translate(0 0.09375)"/>
      <use xlink:href="#DejaVuSans-Oblique-67" transform="translate(39.208984 0.09375)"/>
      <use xlink:href="#DejaVuSans-Oblique-72" transform="translate(102.685547 0.09375)"/>
      <use xlink:href="#DejaVuSans-Oblique-42" transform="translate(143.798828 0.09375)"/>
      <use xlink:href="#DejaVuSans-31" transform="translate(212.402344 0.09375)"/>
      <use xlink:href="#DejaVuSans-2212" transform="translate(290.620117 38.375) scale(0.7)"/>
     </g>
    </g>
    <g id="line2d_27">
     <path d="M 70.2 55.954687 
L 76.2 55.954687 
L 82.2 55.954687 
" style="fill: none; stroke: #a400d3; stroke-width: 1.5; stroke-linecap: square"/>
    </g>
    <g id="text_15">
     <!-- $tgrC1^-$ -->
     <g transform="translate(87 58.054688) scale(0.06 -0.06)">
      <defs>
       <path id="DejaVuSans-Oblique-43" d="M 4447 4306 
L 4319 3641 
Q 4019 3944 3683 4091 
Q 3347 4238 2956 4238 
Q 2422 4238 2017 3981 
Q 1613 3725 1319 3200 
Q 1131 2863 1032 2486 
Q 934 2109 934 1728 
Q 934 1091 1264 756 
Q 1594 422 2222 422 
Q 2656 422 3056 561 
Q 3456 700 3834 978 
L 3688 231 
Q 3316 72 2936 -9 
Q 2556 -91 2175 -91 
Q 1278 -91 773 396 
Q 269 884 269 1753 
Q 269 2309 461 2846 
Q 653 3384 1013 3828 
Q 1394 4300 1883 4525 
Q 2372 4750 3022 4750 
Q 3422 4750 3780 4639 
Q 4138 4528 4447 4306 
z
" transform="scale(0.015625)"/>
      </defs>
      <use xlink:href="#DejaVuSans-Oblique-74" transform="translate(0 0.78125)"/>
      <use xlink:href="#DejaVuSans-Oblique-67" transform="translate(39.208984 0.78125)"/>
      <use xlink:href="#DejaVuSans-Oblique-72" transform="translate(102.685547 0.78125)"/>
      <use xlink:href="#DejaVuSans-Oblique-43" transform="translate(143.798828 0.78125)"/>
      <use xlink:href="#DejaVuSans-31" transform="translate(213.623047 0.78125)"/>
      <use xlink:href="#DejaVuSans-2212" transform="translate(291.84082 39.0625) scale(0.7)"/>
     </g>
    </g>
    <g id="line2d_28">
     <path d="M 70.2 62.794688 
L 76.2 62.794688 
L 82.2 62.794688 
" style="fill: none; stroke: #008528; stroke-width: 1.5; stroke-linecap: square"/>
    </g>
    <g id="text_16">
     <!-- $rapgapB^-$ -->
     <g transform="translate(87 64.894688) scale(0.06 -0.06)">
      <defs>
       <path id="DejaVuSans-Oblique-61" d="M 3438 1997 
L 3047 0 
L 2472 0 
L 2578 531 
Q 2325 219 2001 64 
Q 1678 -91 1281 -91 
Q 834 -91 548 182 
Q 263 456 263 884 
Q 263 1497 752 1853 
Q 1241 2209 2100 2209 
L 2900 2209 
L 2931 2363 
Q 2938 2388 2941 2417 
Q 2944 2447 2944 2509 
Q 2944 2788 2717 2942 
Q 2491 3097 2081 3097 
Q 1800 3097 1504 3025 
Q 1209 2953 897 2809 
L 997 3341 
Q 1322 3463 1633 3523 
Q 1944 3584 2234 3584 
Q 2853 3584 3176 3315 
Q 3500 3047 3500 2534 
Q 3500 2431 3484 2292 
Q 3469 2153 3438 1997 
z
M 2816 1759 
L 2241 1759 
Q 1534 1759 1195 1570 
Q 856 1381 856 984 
Q 856 709 1029 553 
Q 1203 397 1509 397 
Q 1978 397 2328 733 
Q 2678 1069 2791 1631 
L 2816 1759 
z
" transform="scale(0.015625)"/>
       <path id="DejaVuSans-Oblique-70" d="M 3175 2156 
Q 3175 2616 2975 2859 
Q 2775 3103 2400 3103 
Q 2144 3103 1911 2972 
Q 1678 2841 1497 2591 
Q 1319 2344 1212 1994 
Q 1106 1644 1106 1300 
Q 1106 863 1306 627 
Q 1506 391 1875 391 
Q 2147 391 2380 519 
Q 2613 647 2778 891 
Q 2956 1147 3065 1494 
Q 3175 1841 3175 2156 
z
M 1394 2969 
Q 1625 3272 1939 3428 
Q 2253 3584 2638 3584 
Q 3175 3584 3472 3232 
Q 3769 2881 3769 2247 
Q 3769 1728 3584 1258 
Q 3400 788 3053 416 
Q 2822 169 2531 39 
Q 2241 -91 1919 -91 
Q 1547 -91 1294 64 
Q 1041 219 916 525 
L 556 -1331 
L -19 -1331 
L 922 3500 
L 1497 3500 
L 1394 2969 
z
" transform="scale(0.015625)"/>
      </defs>
      <use xlink:href="#DejaVuSans-Oblique-72" transform="translate(0 0.09375)"/>
      <use xlink:href="#DejaVuSans-Oblique-61" transform="translate(41.113281 0.09375)"/>
      <use xlink:href="#DejaVuSans-Oblique-70" transform="translate(102.392578 0.09375)"/>
      <use xlink:href="#DejaVuSans-Oblique-67" transform="translate(165.869141 0.09375)"/>
      <use xlink:href="#DejaVuSans-Oblique-61" transform="translate(229.345703 0.09375)"/>
      <use xlink:href="#DejaVuSans-Oblique-70" transform="translate(290.625 0.09375)"/>
      <use xlink:href="#DejaVuSans-Oblique-42" transform="translate(354.101562 0.09375)"/>
      <use xlink:href="#DejaVuSans-2212" transform="translate(443.359544 38.375) scale(0.7)"/>
     </g>
    </g>
   </g>
  </g>
  <g id="axes_2">
   <g id="patch_7">
    <path d="M 354.24 244.8 
L 570.24 244.8 
L 570.24 34.56 
L 354.24 34.56 
z
" style="fill: #ffffff"/>
   </g>
   <g id="matplotlib.axis_3">
    <g id="xtick_7">
     <g id="line2d_29">
      <g>
       <use xlink:href="#mff6ed3e87e" x="379.163077" y="244.8" style="stroke: #000000; stroke-width: 0.8"/>
      </g>
     </g>
     <g id="text_17">
      <!-- 0 -->
      <g transform="translate(375.826514 260.408125) scale(0.12 -0.12)">
       <use xlink:href="#Helvetica-30"/>
      </g>
     </g>
    </g>
    <g id="xtick_8">
     <g id="line2d_30">
      <g>
       <use xlink:href="#mff6ed3e87e" x="412.393846" y="244.8" style="stroke: #000000; stroke-width: 0.8"/>
      </g>
     </g>
     <g id="text_18">
      <!-- 4 -->
      <g transform="translate(409.057284 260.408125) scale(0.12 -0.12)">
       <use xlink:href="#Helvetica-34"/>
      </g>
     </g>
    </g>
    <g id="xtick_9">
     <g id="line2d_31">
      <g>
       <use xlink:href="#mff6ed3e87e" x="445.624615" y="244.8" style="stroke: #000000; stroke-width: 0.8"/>
      </g>
     </g>
     <g id="text_19">
      <!-- 8 -->
      <g transform="translate(442.288053 260.408125) scale(0.12 -0.12)">
       <use xlink:href="#Helvetica-38"/>
      </g>
     </g>
    </g>
    <g id="xtick_10">
     <g id="line2d_32">
      <g>
       <use xlink:href="#mff6ed3e87e" x="478.855385" y="244.8" style="stroke: #000000; stroke-width: 0.8"/>
      </g>
     </g>
     <g id="text_20">
      <!-- 12 -->
      <g transform="translate(472.18226 260.408125) scale(0.12 -0.12)">
       <use xlink:href="#Helvetica-31"/>
       <use xlink:href="#Helvetica-32" x="55.615234"/>
      </g>
     </g>
    </g>
    <g id="xtick_11">
     <g id="line2d_33">
      <g>
       <use xlink:href="#mff6ed3e87e" x="512.086154" y="244.8" style="stroke: #000000; stroke-width: 0.8"/>
      </g>
     </g>
     <g id="text_21">
      <!-- 16 -->
      <g transform="translate(505.413029 260.408125) scale(0.12 -0.12)">
       <use xlink:href="#Helvetica-31"/>
       <use xlink:href="#Helvetica-36" x="55.615234"/>
      </g>
     </g>
    </g>
    <g id="xtick_12">
     <g id="line2d_34">
      <g>
       <use xlink:href="#mff6ed3e87e" x="545.316923" y="244.8" style="stroke: #000000; stroke-width: 0.8"/>
      </g>
     </g>
     <g id="text_22">
      <!-- 20 -->
      <g transform="translate(538.643798 260.408125) scale(0.12 -0.12)">
       <use xlink:href="#Helvetica-32"/>
       <use xlink:href="#Helvetica-30" x="55.615234"/>
      </g>
     </g>
    </g>
   </g>
   <g id="matplotlib.axis_4">
    <g id="ytick_7">
     <g id="line2d_35">
      <g>
       <use xlink:href="#mef96aa4147" x="354.24" y="220.541538" style="stroke: #000000; stroke-width: 0.8"/>
      </g>
     </g>
     <g id="text_23">
      <!-- 0 -->
      <g transform="translate(340.566875 224.845601) scale(0.12 -0.12)">
       <use xlink:href="#Helvetica-30"/>
      </g>
     </g>
    </g>
    <g id="ytick_8">
     <g id="line2d_36">
      <g>
       <use xlink:href="#mef96aa4147" x="354.24" y="188.196923" style="stroke: #000000; stroke-width: 0.8"/>
      </g>
     </g>
     <g id="text_24">
      <!-- 4 -->
      <g transform="translate(340.566875 192.500986) scale(0.12 -0.12)">
       <use xlink:href="#Helvetica-34"/>
      </g>
     </g>
    </g>
    <g id="ytick_9">
     <g id="line2d_37">
      <g>
       <use xlink:href="#mef96aa4147" x="354.24" y="155.852308" style="stroke: #000000; stroke-width: 0.8"/>
      </g>
     </g>
     <g id="text_25">
      <!-- 8 -->
      <g transform="translate(340.566875 160.15637) scale(0.12 -0.12)">
       <use xlink:href="#Helvetica-38"/>
      </g>
     </g>
    </g>
    <g id="ytick_10">
     <g id="line2d_38">
      <g>
       <use xlink:href="#mef96aa4147" x="354.24" y="123.507692" style="stroke: #000000; stroke-width: 0.8"/>
      </g>
     </g>
     <g id="text_26">
      <!-- 12 -->
      <g transform="translate(333.89375 127.811755) scale(0.12 -0.12)">
       <use xlink:href="#Helvetica-31"/>
       <use xlink:href="#Helvetica-32" x="55.615234"/>
      </g>
     </g>
    </g>
    <g id="ytick_11">
     <g id="line2d_39">
      <g>
       <use xlink:href="#mef96aa4147" x="354.24" y="91.163077" style="stroke: #000000; stroke-width: 0.8"/>
      </g>
     </g>
     <g id="text_27">
      <!-- 16 -->
      <g transform="translate(333.89375 95.467139) scale(0.12 -0.12)">
       <use xlink:href="#Helvetica-31"/>
       <use xlink:href="#Helvetica-36" x="55.615234"/>
      </g>
     </g>
    </g>
    <g id="ytick_12">
     <g id="line2d_40">
      <g>
       <use xlink:href="#mef96aa4147" x="354.24" y="58.818462" style="stroke: #000000; stroke-width: 0.8"/>
      </g>
     </g>
     <g id="text_28">
      <!-- 20 -->
      <g transform="translate(333.89375 63.122524) scale(0.12 -0.12)">
       <use xlink:href="#Helvetica-32"/>
       <use xlink:href="#Helvetica-30" x="55.615234"/>
      </g>
     </g>
    </g>
   </g>
   <g id="line2d_41">
    <path d="M 379.163077 218.291538 
L 412.393846 185.946923 
L 445.624615 153.602308 
L 478.855385 121.257692 
L 512.086154 88.913077 
L 545.316923 56.568462 
" clip-path="url(#p3b1bec2088)" style="fill: none; stroke: #000000; stroke-width: 1.5; stroke-linecap: square"/>
   </g>
   <g id="LineCollection_5">
    <path d="M 379.163077 218.291538 
L 379.163077 218.291538 
" clip-path="url(#p3b1bec2088)" style="fill: none; stroke: #000000; stroke-width: 1.5"/>
    <path d="M 412.393846 185.946923 
L 412.393846 185.946923 
" clip-path="url(#p3b1bec2088)" style="fill: none; stroke: #000000; stroke-width: 1.5"/>
    <path d="M 445.624615 172.27648 
L 445.624615 134.928135 
" clip-path="url(#p3b1bec2088)" style="fill: none; stroke: #000000; stroke-width: 1.5"/>
    <path d="M 478.855385 132.039231 
L 478.855385 110.476154 
" clip-path="url(#p3b1bec2088)" style="fill: none; stroke: #000000; stroke-width: 1.5"/>
    <path d="M 512.086154 99.694615 
L 512.086154 78.131538 
" clip-path="url(#p3b1bec2088)" style="fill: none; stroke: #000000; stroke-width: 1.5"/>
    <path d="M 545.316923 56.568462 
L 545.316923 56.568462 
" clip-path="url(#p3b1bec2088)" style="fill: none; stroke: #000000; stroke-width: 1.5"/>
   </g>
   <g id="line2d_42">
    <g clip-path="url(#p3b1bec2088)">
     <use xlink:href="#m61cd7d117c" x="379.163077" y="218.291538" style="stroke: #000000"/>
     <use xlink:href="#m61cd7d117c" x="412.393846" y="185.946923" style="stroke: #000000"/>
     <use xlink:href="#m61cd7d117c" x="445.624615" y="172.27648" style="stroke: #000000"/>
     <use xlink:href="#m61cd7d117c" x="478.855385" y="132.039231" style="stroke: #000000"/>
     <use xlink:href="#m61cd7d117c" x="512.086154" y="99.694615" style="stroke: #000000"/>
     <use xlink:href="#m61cd7d117c" x="545.316923" y="56.568462" style="stroke: #000000"/>
    </g>
   </g>
   <g id="line2d_43">
    <g clip-path="url(#p3b1bec2088)">
     <use xlink:href="#m61cd7d117c" x="379.163077" y="218.291538" style="stroke: #000000"/>
     <use xlink:href="#m61cd7d117c" x="412.393846" y="185.946923" style="stroke: #000000"/>
     <use xlink:href="#m61cd7d117c" x="445.624615" y="134.928135" style="stroke: #000000"/>
     <use xlink:href="#m61cd7d117c" x="478.855385" y="110.476154" style="stroke: #000000"/>
     <use xlink:href="#m61cd7d117c" x="512.086154" y="78.131538" style="stroke: #000000"/>
     <use xlink:href="#m61cd7d117c" x="545.316923" y="56.568462" style="stroke: #000000"/>
    </g>
   </g>
   <g id="line2d_44">
    <path d="M 379.163077 219.791538 
L 412.393846 187.446923 
L 445.624615 155.102308 
L 478.855385 122.757692 
L 512.086154 90.413077 
L 545.316923 58.068462 
" clip-path="url(#p3b1bec2088)" style="fill: none; stroke: #d9d800; stroke-width: 1.5; stroke-linecap: square"/>
   </g>
   <g id="LineCollection_6">
    <path d="M 379.163077 230.573077 
L 379.163077 209.01 
" clip-path="url(#p3b1bec2088)" style="fill: none; stroke: #d9d800; stroke-width: 1.5"/>
    <path d="M 412.393846 187.446923 
L 412.393846 187.446923 
" clip-path="url(#p3b1bec2088)" style="fill: none; stroke: #d9d800; stroke-width: 1.5"/>
    <path d="M 445.624615 176.665385 
L 445.624615 133.539231 
" clip-path="url(#p3b1bec2088)" style="fill: none; stroke: #d9d800; stroke-width: 1.5"/>
    <path d="M 478.855385 133.539231 
L 478.855385 111.976154 
" clip-path="url(#p3b1bec2088)" style="fill: none; stroke: #d9d800; stroke-width: 1.5"/>
    <path d="M 512.086154 111.976154 
L 512.086154 68.85 
" clip-path="url(#p3b1bec2088)" style="fill: none; stroke: #d9d800; stroke-width: 1.5"/>
    <path d="M 545.316923 58.068462 
L 545.316923 58.068462 
" clip-path="url(#p3b1bec2088)" style="fill: none; stroke: #d9d800; stroke-width: 1.5"/>
   </g>
   <g id="line2d_45">
    <defs>
     <path id="m3d43eea23c" d="M 4 0 
L -4 -0 
" style="stroke: #d9d800"/>
    </defs>
    <g clip-path="url(#p3b1bec2088)">
     <use xlink:href="#m3d43eea23c" x="379.163077" y="230.573077" style="fill: #d9d800; stroke: #d9d800"/>
     <use xlink:href="#m3d43eea23c" x="412.393846" y="187.446923" style="fill: #d9d800; stroke: #d9d800"/>
     <use xlink:href="#m3d43eea23c" x="445.624615" y="176.665385" style="fill: #d9d800; stroke: #d9d800"/>
     <use xlink:href="#m3d43eea23c" x="478.855385" y="133.539231" style="fill: #d9d800; stroke: #d9d800"/>
     <use xlink:href="#m3d43eea23c" x="512.086154" y="111.976154" style="fill: #d9d800; stroke: #d9d800"/>
     <use xlink:href="#m3d43eea23c" x="545.316923" y="58.068462" style="fill: #d9d800; stroke: #d9d800"/>
    </g>
   </g>
   <g id="line2d_46">
    <g clip-path="url(#p3b1bec2088)">
     <use xlink:href="#m3d43eea23c" x="379.163077" y="209.01" style="fill: #d9d800; stroke: #d9d800"/>
     <use xlink:href="#m3d43eea23c" x="412.393846" y="187.446923" style="fill: #d9d800; stroke: #d9d800"/>
     <use xlink:href="#m3d43eea23c" x="445.624615" y="133.539231" style="fill: #d9d800; stroke: #d9d800"/>
     <use xlink:href="#m3d43eea23c" x="478.855385" y="111.976154" style="fill: #d9d800; stroke: #d9d800"/>
     <use xlink:href="#m3d43eea23c" x="512.086154" y="68.85" style="fill: #d9d800; stroke: #d9d800"/>
     <use xlink:href="#m3d43eea23c" x="545.316923" y="58.068462" style="fill: #d9d800; stroke: #d9d800"/>
    </g>
   </g>
   <g id="line2d_47">
    <path d="M 379.163077 221.291538 
L 412.393846 59.568462 
L 445.624615 124.257692 
L 478.855385 91.913077 
L 512.086154 91.913077 
L 545.316923 91.913077 
" clip-path="url(#p3b1bec2088)" style="fill: none; stroke: #ed1c24; stroke-width: 1.5; stroke-linecap: square"/>
   </g>
   <g id="LineCollection_7">
    <path d="M 379.163077 221.291538 
L 379.163077 221.291538 
" clip-path="url(#p3b1bec2088)" style="fill: none; stroke: #ed1c24; stroke-width: 1.5"/>
    <path d="M 412.393846 102.694615 
L 412.393846 16.442308 
" clip-path="url(#p3b1bec2088)" style="fill: none; stroke: #ed1c24; stroke-width: 1.5"/>
    <path d="M 445.624615 124.257692 
L 445.624615 124.257692 
" clip-path="url(#p3b1bec2088)" style="fill: none; stroke: #ed1c24; stroke-width: 1.5"/>
    <path d="M 478.855385 91.913077 
L 478.855385 91.913077 
" clip-path="url(#p3b1bec2088)" style="fill: none; stroke: #ed1c24; stroke-width: 1.5"/>
    <path d="M 512.086154 91.913077 
L 512.086154 91.913077 
" clip-path="url(#p3b1bec2088)" style="fill: none; stroke: #ed1c24; stroke-width: 1.5"/>
    <path d="M 545.316923 120.438346 
L 545.316923 63.387807 
" clip-path="url(#p3b1bec2088)" style="fill: none; stroke: #ed1c24; stroke-width: 1.5"/>
   </g>
   <g id="line2d_48">
    <defs>
     <path id="m3fecbfb0a4" d="M 4 0 
L -4 -0 
" style="stroke: #ed1c24"/>
    </defs>
    <g clip-path="url(#p3b1bec2088)">
     <use xlink:href="#m3fecbfb0a4" x="379.163077" y="221.291538" style="fill: #ed1c24; stroke: #ed1c24"/>
     <use xlink:href="#m3fecbfb0a4" x="412.393846" y="102.694615" style="fill: #ed1c24; stroke: #ed1c24"/>
     <use xlink:href="#m3fecbfb0a4" x="445.624615" y="124.257692" style="fill: #ed1c24; stroke: #ed1c24"/>
     <use xlink:href="#m3fecbfb0a4" x="478.855385" y="91.913077" style="fill: #ed1c24; stroke: #ed1c24"/>
     <use xlink:href="#m3fecbfb0a4" x="512.086154" y="91.913077" style="fill: #ed1c24; stroke: #ed1c24"/>
     <use xlink:href="#m3fecbfb0a4" x="545.316923" y="120.438346" style="fill: #ed1c24; stroke: #ed1c24"/>
    </g>
   </g>
   <g id="line2d_49">
    <g clip-path="url(#p3b1bec2088)">
     <use xlink:href="#m3fecbfb0a4" x="379.163077" y="221.291538" style="fill: #ed1c24; stroke: #ed1c24"/>
     <use xlink:href="#m3fecbfb0a4" x="412.393846" y="16.442308" style="fill: #ed1c24; stroke: #ed1c24"/>
     <use xlink:href="#m3fecbfb0a4" x="445.624615" y="124.257692" style="fill: #ed1c24; stroke: #ed1c24"/>
     <use xlink:href="#m3fecbfb0a4" x="478.855385" y="91.913077" style="fill: #ed1c24; stroke: #ed1c24"/>
     <use xlink:href="#m3fecbfb0a4" x="512.086154" y="91.913077" style="fill: #ed1c24; stroke: #ed1c24"/>
     <use xlink:href="#m3fecbfb0a4" x="545.316923" y="63.387807" style="fill: #ed1c24; stroke: #ed1c24"/>
    </g>
   </g>
   <g id="patch_8">
    <path d="M 354.24 244.8 
L 354.24 34.56 
" style="fill: none; stroke: #000000; stroke-width: 0.8; stroke-linejoin: miter; stroke-linecap: square"/>
   </g>
   <g id="patch_9">
    <path d="M 570.24 244.8 
L 570.24 34.56 
" style="fill: none; stroke: #000000; stroke-width: 0.8; stroke-linejoin: miter; stroke-linecap: square"/>
   </g>
   <g id="patch_10">
    <path d="M 354.24 244.8 
L 570.24 244.8 
" style="fill: none; stroke: #000000; stroke-width: 0.8; stroke-linejoin: miter; stroke-linecap: square"/>
   </g>
   <g id="patch_11">
    <path d="M 354.24 34.56 
L 570.24 34.56 
" style="fill: none; stroke: #000000; stroke-width: 0.8; stroke-linejoin: miter; stroke-linecap: square"/>
   </g>
   <g id="legend_2">
    <g id="line2d_50">
     <path d="M 494.94 222.454688 
L 500.94 222.454688 
L 506.94 222.454688 
" style="fill: none; stroke: #000000; stroke-width: 1.5; stroke-linecap: square"/>
    </g>
    <g id="text_29">
     <!-- $AX4$ -->
     <g transform="translate(511.74 224.554688) scale(0.06 -0.06)">
      <use xlink:href="#DejaVuSans-Oblique-41" transform="translate(0 0.09375)"/>
      <use xlink:href="#DejaVuSans-Oblique-58" transform="translate(68.408203 0.09375)"/>
      <use xlink:href="#DejaVuSans-34" transform="translate(136.914062 0.09375)"/>
     </g>
    </g>
    <g id="line2d_51">
     <path d="M 494.94 229.285313 
L 500.94 229.285313 
L 506.94 229.285313 
" style="fill: none; stroke: #d9d800; stroke-width: 1.5; stroke-linecap: square"/>
    </g>
    <g id="text_30">
     <!-- $rapgapB^-tgrB1^-$ -->
     <g transform="translate(511.74 231.385312) scale(0.06 -0.06)">
      <use xlink:href="#DejaVuSans-Oblique-72" transform="translate(0 0.09375)"/>
      <use xlink:href="#DejaVuSans-Oblique-61" transform="translate(41.113281 0.09375)"/>
      <use xlink:href="#DejaVuSans-Oblique-70" transform="translate(102.392578 0.09375)"/>
      <use xlink:href="#DejaVuSans-Oblique-67" transform="translate(165.869141 0.09375)"/>
      <use xlink:href="#DejaVuSans-Oblique-61" transform="translate(229.345703 0.09375)"/>
      <use xlink:href="#DejaVuSans-Oblique-70" transform="translate(290.625 0.09375)"/>
      <use xlink:href="#DejaVuSans-Oblique-42" transform="translate(354.101562 0.09375)"/>
      <use xlink:href="#DejaVuSans-2212" transform="translate(443.359544 38.375) scale(0.7)"/>
      <use xlink:href="#DejaVuSans-Oblique-74" transform="translate(518.383958 0.09375)"/>
      <use xlink:href="#DejaVuSans-Oblique-67" transform="translate(557.592943 0.09375)"/>
      <use xlink:href="#DejaVuSans-Oblique-72" transform="translate(621.069505 0.09375)"/>
      <use xlink:href="#DejaVuSans-Oblique-42" transform="translate(662.182786 0.09375)"/>
      <use xlink:href="#DejaVuSans-31" transform="translate(730.786302 0.09375)"/>
      <use xlink:href="#DejaVuSans-2212" transform="translate(809.004076 38.375) scale(0.7)"/>
     </g>
    </g>
    <g id="line2d_52">
     <path d="M 494.94 236.049375 
L 500.94 236.049375 
L 506.94 236.049375 
" style="fill: none; stroke: #ed1c24; stroke-width: 1.5; stroke-linecap: square"/>
    </g>
    <g id="text_31">
     <!-- $AX4$ $L846F$ -->
     <g transform="translate(511.74 238.149375) scale(0.06 -0.06)">
      <defs>
       <path id="Helvetica-20" transform="scale(0.015625)"/>
       <path id="DejaVuSans-Oblique-4c" d="M 1075 4666 
L 1709 4666 
L 909 525 
L 3181 525 
L 3078 0 
L 172 0 
L 1075 4666 
z
" transform="scale(0.015625)"/>
       <path id="DejaVuSans-38" d="M 2034 2216 
Q 1584 2216 1326 1975 
Q 1069 1734 1069 1313 
Q 1069 891 1326 650 
Q 1584 409 2034 409 
Q 2484 409 2743 651 
Q 3003 894 3003 1313 
Q 3003 1734 2745 1975 
Q 2488 2216 2034 2216 
z
M 1403 2484 
Q 997 2584 770 2862 
Q 544 3141 544 3541 
Q 544 4100 942 4425 
Q 1341 4750 2034 4750 
Q 2731 4750 3128 4425 
Q 3525 4100 3525 3541 
Q 3525 3141 3298 2862 
Q 3072 2584 2669 2484 
Q 3125 2378 3379 2068 
Q 3634 1759 3634 1313 
Q 3634 634 3220 271 
Q 2806 -91 2034 -91 
Q 1263 -91 848 271 
Q 434 634 434 1313 
Q 434 1759 690 2068 
Q 947 2378 1403 2484 
z
M 1172 3481 
Q 1172 3119 1398 2916 
Q 1625 2713 2034 2713 
Q 2441 2713 2670 2916 
Q 2900 3119 2900 3481 
Q 2900 3844 2670 4047 
Q 2441 4250 2034 4250 
Q 1625 4250 1398 4047 
Q 1172 3844 1172 3481 
z
" transform="scale(0.015625)"/>
       <path id="DejaVuSans-36" d="M 2113 2584 
Q 1688 2584 1439 2293 
Q 1191 2003 1191 1497 
Q 1191 994 1439 701 
Q 1688 409 2113 409 
Q 2538 409 2786 701 
Q 3034 994 3034 1497 
Q 3034 2003 2786 2293 
Q 2538 2584 2113 2584 
z
M 3366 4563 
L 3366 3988 
Q 3128 4100 2886 4159 
Q 2644 4219 2406 4219 
Q 1781 4219 1451 3797 
Q 1122 3375 1075 2522 
Q 1259 2794 1537 2939 
Q 1816 3084 2150 3084 
Q 2853 3084 3261 2657 
Q 3669 2231 3669 1497 
Q 3669 778 3244 343 
Q 2819 -91 2113 -91 
Q 1303 -91 875 529 
Q 447 1150 447 2328 
Q 447 3434 972 4092 
Q 1497 4750 2381 4750 
Q 2619 4750 2861 4703 
Q 3103 4656 3366 4563 
z
" transform="scale(0.015625)"/>
       <path id="DejaVuSans-Oblique-46" d="M 1081 4666 
L 3756 4666 
L 3653 4134 
L 1606 4134 
L 1338 2759 
L 3188 2759 
L 3084 2228 
L 1234 2228 
L 800 0 
L 172 0 
L 1081 4666 
z
" transform="scale(0.015625)"/>
      </defs>
      <use xlink:href="#DejaVuSans-Oblique-41" transform="translate(0 0.78125)"/>
      <use xlink:href="#DejaVuSans-Oblique-58" transform="translate(68.408203 0.78125)"/>
      <use xlink:href="#DejaVuSans-34" transform="translate(136.914062 0.78125)"/>
      <use xlink:href="#Helvetica-20" transform="translate(200.537109 0.78125)"/>
      <use xlink:href="#DejaVuSans-Oblique-4c" transform="translate(228.320312 0.78125)"/>
      <use xlink:href="#DejaVuSans-38" transform="translate(284.033203 0.78125)"/>
      <use xlink:href="#DejaVuSans-34" transform="translate(347.65625 0.78125)"/>
      <use xlink:href="#DejaVuSans-36" transform="translate(411.279297 0.78125)"/>
      <use xlink:href="#DejaVuSans-Oblique-46" transform="translate(474.902344 0.78125)"/>
     </g>
    </g>
   </g>
  </g>
  <g id="text_32">
   <!-- chemotaxis (110) -->
   <g transform="translate(268.7805 16.1955) scale(0.144 -0.144)">
    <defs>
     <path id="Helvetica-63" d="M 1703 3444 
Q 2269 3444 2623 3169 
Q 2978 2894 3050 2222 
L 2503 2222 
Q 2453 2531 2275 2736 
Q 2097 2941 1703 2941 
Q 1166 2941 934 2416 
Q 784 2075 784 1575 
Q 784 1072 996 728 
Q 1209 384 1666 384 
Q 2016 384 2220 598 
Q 2425 813 2503 1184 
L 3050 1184 
Q 2956 519 2581 211 
Q 2206 -97 1622 -97 
Q 966 -97 575 383 
Q 184 863 184 1581 
Q 184 2463 612 2953 
Q 1041 3444 1703 3444 
z
M 1616 3428 
L 1616 3428 
z
" transform="scale(0.015625)"/>
     <path id="Helvetica-68" d="M 413 4606 
L 975 4606 
L 975 2894 
Q 1175 3147 1334 3250 
Q 1606 3428 2013 3428 
Q 2741 3428 3000 2919 
Q 3141 2641 3141 2147 
L 3141 0 
L 2563 0 
L 2563 2109 
Q 2563 2478 2469 2650 
Q 2316 2925 1894 2925 
Q 1544 2925 1259 2684 
Q 975 2444 975 1775 
L 975 0 
L 413 0 
L 413 4606 
z
" transform="scale(0.015625)"/>
     <path id="Helvetica-65" d="M 1806 3422 
Q 2163 3422 2497 3255 
Q 2831 3088 3006 2822 
Q 3175 2569 3231 2231 
Q 3281 2000 3281 1494 
L 828 1494 
Q 844 984 1069 676 
Q 1294 369 1766 369 
Q 2206 369 2469 659 
Q 2619 828 2681 1050 
L 3234 1050 
Q 3213 866 3089 639 
Q 2966 413 2813 269 
Q 2556 19 2178 -69 
Q 1975 -119 1719 -119 
Q 1094 -119 659 336 
Q 225 791 225 1609 
Q 225 2416 662 2919 
Q 1100 3422 1806 3422 
z
M 2703 1941 
Q 2669 2306 2544 2525 
Q 2313 2931 1772 2931 
Q 1384 2931 1121 2651 
Q 859 2372 844 1941 
L 2703 1941 
z
M 1753 3428 
L 1753 3428 
z
" transform="scale(0.015625)"/>
     <path id="Helvetica-6d" d="M 413 3347 
L 969 3347 
L 969 2872 
Q 1169 3119 1331 3231 
Q 1609 3422 1963 3422 
Q 2363 3422 2606 3225 
Q 2744 3113 2856 2894 
Q 3044 3163 3297 3292 
Q 3550 3422 3866 3422 
Q 4541 3422 4784 2934 
Q 4916 2672 4916 2228 
L 4916 0 
L 4331 0 
L 4331 2325 
Q 4331 2659 4164 2784 
Q 3997 2909 3756 2909 
Q 3425 2909 3186 2687 
Q 2947 2466 2947 1947 
L 2947 0 
L 2375 0 
L 2375 2184 
Q 2375 2525 2294 2681 
Q 2166 2916 1816 2916 
Q 1497 2916 1236 2669 
Q 975 2422 975 1775 
L 975 0 
L 413 0 
L 413 3347 
z
" transform="scale(0.015625)"/>
     <path id="Helvetica-6f" d="M 1741 363 
Q 2300 363 2508 786 
Q 2716 1209 2716 1728 
Q 2716 2197 2566 2491 
Q 2328 2953 1747 2953 
Q 1231 2953 997 2559 
Q 763 2166 763 1609 
Q 763 1075 997 719 
Q 1231 363 1741 363 
z
M 1763 3444 
Q 2409 3444 2856 3012 
Q 3303 2581 3303 1744 
Q 3303 934 2909 406 
Q 2516 -122 1688 -122 
Q 997 -122 590 345 
Q 184 813 184 1600 
Q 184 2444 612 2944 
Q 1041 3444 1763 3444 
z
M 1744 3428 
L 1744 3428 
z
" transform="scale(0.015625)"/>
     <path id="Helvetica-74" d="M 525 4281 
L 1094 4281 
L 1094 3347 
L 1628 3347 
L 1628 2888 
L 1094 2888 
L 1094 703 
Q 1094 528 1213 469 
Q 1278 434 1431 434 
Q 1472 434 1519 436 
Q 1566 438 1628 444 
L 1628 0 
Q 1531 -28 1426 -40 
Q 1322 -53 1200 -53 
Q 806 -53 665 148 
Q 525 350 525 672 
L 525 2888 
L 72 2888 
L 72 3347 
L 525 3347 
L 525 4281 
z
" transform="scale(0.015625)"/>
     <path id="Helvetica-61" d="M 844 891 
Q 844 647 1022 506 
Q 1200 366 1444 366 
Q 1741 366 2019 503 
Q 2488 731 2488 1250 
L 2488 1703 
Q 2384 1638 2221 1594 
Q 2059 1550 1903 1531 
L 1563 1488 
Q 1256 1447 1103 1359 
Q 844 1213 844 891 
z
M 2206 2028 
Q 2400 2053 2466 2191 
Q 2503 2266 2503 2406 
Q 2503 2694 2298 2823 
Q 2094 2953 1713 2953 
Q 1272 2953 1088 2716 
Q 984 2584 953 2325 
L 428 2325 
Q 444 2944 830 3186 
Q 1216 3428 1725 3428 
Q 2316 3428 2684 3203 
Q 3050 2978 3050 2503 
L 3050 575 
Q 3050 488 3086 434 
Q 3122 381 3238 381 
Q 3275 381 3322 386 
Q 3369 391 3422 400 
L 3422 -16 
Q 3291 -53 3222 -62 
Q 3153 -72 3034 -72 
Q 2744 -72 2613 134 
Q 2544 244 2516 444 
Q 2344 219 2022 53 
Q 1700 -113 1313 -113 
Q 847 -113 551 170 
Q 256 453 256 878 
Q 256 1344 547 1600 
Q 838 1856 1309 1916 
L 2206 2028 
z
M 1741 3428 
L 1741 3428 
z
" transform="scale(0.015625)"/>
     <path id="Helvetica-78" d="M 94 3347 
L 822 3347 
L 1591 2169 
L 2369 3347 
L 3053 3331 
L 1925 1716 
L 3103 0 
L 2384 0 
L 1553 1256 
L 747 0 
L 34 0 
L 1213 1716 
L 94 3347 
z
" transform="scale(0.015625)"/>
     <path id="Helvetica-69" d="M 413 3331 
L 984 3331 
L 984 0 
L 413 0 
L 413 3331 
z
M 413 4591 
L 984 4591 
L 984 3953 
L 413 3953 
L 413 4591 
z
" transform="scale(0.015625)"/>
     <path id="Helvetica-73" d="M 747 1050 
Q 772 769 888 619 
Q 1100 347 1625 347 
Q 1938 347 2175 483 
Q 2413 619 2413 903 
Q 2413 1119 2222 1231 
Q 2100 1300 1741 1391 
L 1294 1503 
Q 866 1609 663 1741 
Q 300 1969 300 2372 
Q 300 2847 642 3140 
Q 984 3434 1563 3434 
Q 2319 3434 2653 2991 
Q 2863 2709 2856 2384 
L 2325 2384 
Q 2309 2575 2191 2731 
Q 1997 2953 1519 2953 
Q 1200 2953 1036 2831 
Q 872 2709 872 2509 
Q 872 2291 1088 2159 
Q 1213 2081 1456 2022 
L 1828 1931 
Q 2434 1784 2641 1647 
Q 2969 1431 2969 969 
Q 2969 522 2630 197 
Q 2291 -128 1597 -128 
Q 850 -128 539 211 
Q 228 550 206 1050 
L 747 1050 
z
M 1578 3428 
L 1578 3428 
z
" transform="scale(0.015625)"/>
     <path id="Helvetica-28" d="M 1894 4666 
Q 1403 3713 1256 3263 
Q 1034 2578 1034 1681 
Q 1034 775 1288 25 
Q 1444 -438 1903 -1306 
L 1525 -1306 
Q 1069 -594 959 -397 
Q 850 -200 722 138 
Q 547 600 478 1125 
Q 444 1397 444 1644 
Q 444 2569 734 3291 
Q 919 3750 1503 4666 
L 1894 4666 
z
" transform="scale(0.015625)"/>
     <path id="Helvetica-29" d="M 222 -1306 
Q 719 -338 863 106 
Q 1081 778 1081 1681 
Q 1081 2584 828 3334 
Q 672 3797 213 4666 
L 591 4666 
Q 1072 3897 1173 3717 
Q 1275 3538 1394 3222 
Q 1544 2831 1608 2450 
Q 1672 2069 1672 1716 
Q 1672 791 1378 66 
Q 1194 -400 613 -1306 
L 222 -1306 
z
" transform="scale(0.015625)"/>
    </defs>
    <use xlink:href="#Helvetica-63"/>
    <use xlink:href="#Helvetica-68" x="50"/>
    <use xlink:href="#Helvetica-65" x="105.615234"/>
    <use xlink:href="#Helvetica-6d" x="161.230469"/>
    <use xlink:href="#Helvetica-6f" x="244.53125"/>
    <use xlink:href="#Helvetica-74" x="300.146484"/>
    <use xlink:href="#Helvetica-61" x="327.929688"/>
    <use xlink:href="#Helvetica-78" x="383.544922"/>
    <use xlink:href="#Helvetica-69" x="433.544922"/>
    <use xlink:href="#Helvetica-73" x="455.761719"/>
    <use xlink:href="#Helvetica-20" x="505.761719"/>
    <use xlink:href="#Helvetica-28" x="533.544922"/>
    <use xlink:href="#Helvetica-31" x="566.845703"/>
    <use xlink:href="#Helvetica-31" x="622.460938"/>
    <use xlink:href="#Helvetica-30" x="678.076172"/>
    <use xlink:href="#Helvetica-29" x="733.691406"/>
   </g>
  </g>
  <g id="text_33">
   <!-- hours of mutant development -->
   <g transform="translate(246.293437 276.48) scale(0.12 -0.12)">
    <defs>
     <path id="Helvetica-75" d="M 975 3347 
L 975 1125 
Q 975 869 1056 706 
Q 1206 406 1616 406 
Q 2203 406 2416 931 
Q 2531 1213 2531 1703 
L 2531 3347 
L 3094 3347 
L 3094 0 
L 2563 0 
L 2569 494 
Q 2459 303 2297 172 
Q 1975 -91 1516 -91 
Q 800 -91 541 388 
Q 400 644 400 1072 
L 400 3347 
L 975 3347 
z
M 1747 3428 
L 1747 3428 
z
" transform="scale(0.015625)"/>
     <path id="Helvetica-72" d="M 428 3347 
L 963 3347 
L 963 2769 
Q 1028 2938 1284 3180 
Q 1541 3422 1875 3422 
Q 1891 3422 1928 3419 
Q 1966 3416 2056 3406 
L 2056 2813 
Q 2006 2822 1964 2825 
Q 1922 2828 1872 2828 
Q 1447 2828 1219 2554 
Q 991 2281 991 1925 
L 991 0 
L 428 0 
L 428 3347 
z
" transform="scale(0.015625)"/>
     <path id="Helvetica-66" d="M 553 3856 
Q 566 4206 675 4369 
Q 872 4656 1434 4656 
Q 1488 4656 1544 4653 
Q 1600 4650 1672 4644 
L 1672 4131 
Q 1584 4138 1545 4139 
Q 1506 4141 1472 4141 
Q 1216 4141 1166 4008 
Q 1116 3875 1116 3331 
L 1672 3331 
L 1672 2888 
L 1109 2888 
L 1109 0 
L 553 0 
L 553 2888 
L 88 2888 
L 88 3331 
L 553 3331 
L 553 3856 
z
" transform="scale(0.015625)"/>
     <path id="Helvetica-6e" d="M 413 3347 
L 947 3347 
L 947 2872 
Q 1184 3166 1450 3294 
Q 1716 3422 2041 3422 
Q 2753 3422 3003 2925 
Q 3141 2653 3141 2147 
L 3141 0 
L 2569 0 
L 2569 2109 
Q 2569 2416 2478 2603 
Q 2328 2916 1934 2916 
Q 1734 2916 1606 2875 
Q 1375 2806 1200 2600 
Q 1059 2434 1017 2257 
Q 975 2081 975 1753 
L 975 0 
L 413 0 
L 413 3347 
z
M 1734 3428 
L 1734 3428 
z
" transform="scale(0.015625)"/>
     <path id="Helvetica-64" d="M 769 1634 
Q 769 1097 997 734 
Q 1225 372 1728 372 
Q 2119 372 2370 708 
Q 2622 1044 2622 1672 
Q 2622 2306 2362 2611 
Q 2103 2916 1722 2916 
Q 1297 2916 1033 2591 
Q 769 2266 769 1634 
z
M 1616 3406 
Q 2000 3406 2259 3244 
Q 2409 3150 2600 2916 
L 2600 4606 
L 3141 4606 
L 3141 0 
L 2634 0 
L 2634 466 
Q 2438 156 2169 18 
Q 1900 -119 1553 -119 
Q 994 -119 584 351 
Q 175 822 175 1603 
Q 175 2334 548 2870 
Q 922 3406 1616 3406 
z
" transform="scale(0.015625)"/>
     <path id="Helvetica-76" d="M 688 3347 
L 1581 622 
L 2516 3347 
L 3131 3347 
L 1869 0 
L 1269 0 
L 34 3347 
L 688 3347 
z
" transform="scale(0.015625)"/>
     <path id="Helvetica-6c" d="M 428 4591 
L 991 4591 
L 991 0 
L 428 0 
L 428 4591 
z
" transform="scale(0.015625)"/>
     <path id="Helvetica-70" d="M 1825 378 
Q 2219 378 2480 708 
Q 2741 1038 2741 1694 
Q 2741 2094 2625 2381 
Q 2406 2934 1825 2934 
Q 1241 2934 1025 2350 
Q 909 2038 909 1556 
Q 909 1169 1025 897 
Q 1244 378 1825 378 
z
M 369 3331 
L 916 3331 
L 916 2888 
Q 1084 3116 1284 3241 
Q 1569 3428 1953 3428 
Q 2522 3428 2919 2992 
Q 3316 2556 3316 1747 
Q 3316 653 2744 184 
Q 2381 -113 1900 -113 
Q 1522 -113 1266 53 
Q 1116 147 931 375 
L 931 -1334 
L 369 -1334 
L 369 3331 
z
" transform="scale(0.015625)"/>
    </defs>
    <use xlink:href="#Helvetica-68"/>
    <use xlink:href="#Helvetica-6f" x="55.615234"/>
    <use xlink:href="#Helvetica-75" x="111.230469"/>
    <use xlink:href="#Helvetica-72" x="166.845703"/>
    <use xlink:href="#Helvetica-73" x="200.146484"/>
    <use xlink:href="#Helvetica-20" x="250.146484"/>
    <use xlink:href="#Helvetica-6f" x="277.929688"/>
    <use xlink:href="#Helvetica-66" x="333.544922"/>
    <use xlink:href="#Helvetica-20" x="361.328125"/>
    <use xlink:href="#Helvetica-6d" x="389.111328"/>
    <use xlink:href="#Helvetica-75" x="472.412109"/>
    <use xlink:href="#Helvetica-74" x="528.027344"/>
    <use xlink:href="#Helvetica-61" x="555.810547"/>
    <use xlink:href="#Helvetica-6e" x="611.425781"/>
    <use xlink:href="#Helvetica-74" x="667.041016"/>
    <use xlink:href="#Helvetica-20" x="694.824219"/>
    <use xlink:href="#Helvetica-64" x="722.607422"/>
    <use xlink:href="#Helvetica-65" x="778.222656"/>
    <use xlink:href="#Helvetica-76" x="833.837891"/>
    <use xlink:href="#Helvetica-65" x="883.837891"/>
    <use xlink:href="#Helvetica-6c" x="939.453125"/>
    <use xlink:href="#Helvetica-6f" x="961.669922"/>
    <use xlink:href="#Helvetica-70" x="1017.285156"/>
    <use xlink:href="#Helvetica-6d" x="1072.900391"/>
    <use xlink:href="#Helvetica-65" x="1156.201172"/>
    <use xlink:href="#Helvetica-6e" x="1211.816406"/>
    <use xlink:href="#Helvetica-74" x="1267.431641"/>
   </g>
  </g>
  <g id="text_34">
   <!-- hours of AX4 development -->
   <g transform="translate(34.65 214.70625) rotate(-90) scale(0.12 -0.12)">
    <defs>
     <path id="Helvetica-41" d="M 2844 1881 
L 2147 3909 
L 1406 1881 
L 2844 1881 
z
M 1822 4591 
L 2525 4591 
L 4191 0 
L 3509 0 
L 3044 1375 
L 1228 1375 
L 731 0 
L 94 0 
L 1822 4591 
z
" transform="scale(0.015625)"/>
     <path id="Helvetica-58" d="M 881 0 
L 131 0 
L 1775 2353 
L 234 4591 
L 1013 4591 
L 2184 2834 
L 3347 4591 
L 4088 4591 
L 2547 2353 
L 4163 0 
L 3391 0 
L 2153 1888 
L 881 0 
z
" transform="scale(0.015625)"/>
    </defs>
    <use xlink:href="#Helvetica-68"/>
    <use xlink:href="#Helvetica-6f" x="55.615234"/>
    <use xlink:href="#Helvetica-75" x="111.230469"/>
    <use xlink:href="#Helvetica-72" x="166.845703"/>
    <use xlink:href="#Helvetica-73" x="200.146484"/>
    <use xlink:href="#Helvetica-20" x="250.146484"/>
    <use xlink:href="#Helvetica-6f" x="277.929688"/>
    <use xlink:href="#Helvetica-66" x="333.544922"/>
    <use xlink:href="#Helvetica-20" x="361.328125"/>
    <use xlink:href="#Helvetica-41" x="389.111328"/>
    <use xlink:href="#Helvetica-58" x="455.810547"/>
    <use xlink:href="#Helvetica-34" x="522.509766"/>
    <use xlink:href="#Helvetica-20" x="578.125"/>
    <use xlink:href="#Helvetica-64" x="605.908203"/>
    <use xlink:href="#Helvetica-65" x="661.523438"/>
    <use xlink:href="#Helvetica-76" x="717.138672"/>
    <use xlink:href="#Helvetica-65" x="767.138672"/>
    <use xlink:href="#Helvetica-6c" x="822.753906"/>
    <use xlink:href="#Helvetica-6f" x="844.970703"/>
    <use xlink:href="#Helvetica-70" x="900.585938"/>
    <use xlink:href="#Helvetica-6d" x="956.201172"/>
    <use xlink:href="#Helvetica-65" x="1039.501953"/>
    <use xlink:href="#Helvetica-6e" x="1095.117188"/>
    <use xlink:href="#Helvetica-74" x="1150.732422"/>
   </g>
  </g>
 </g>
 <defs>
  <clipPath id="pee43857af5">
   <rect x="64.8" y="34.56" width="216" height="210.24"/>
  </clipPath>
  <clipPath id="p3b1bec2088">
   <rect x="354.24" y="34.56" width="216" height="210.24"/>
  </clipPath>
 </defs>
</svg>
